<svg width="148" height="24" viewBox="0 0 148 24" fill="none" xmlns="http://www.w3.org/2000/svg">
<path d="M147.171 17.7239C147.171 18.9186 146.816 19.9359 146.107 20.7759C145.416 21.5973 144.399 22.2226 143.055 22.6519C141.711 23.0813 140.078 23.2959 138.155 23.2959C136.195 23.2959 134.478 23.0533 133.003 22.5679C131.529 22.0826 130.381 21.4013 129.559 20.5239C128.738 19.6466 128.299 18.6293 128.243 17.4719H133.535C133.647 17.9386 133.909 18.3493 134.319 18.7039C134.749 19.0586 135.299 19.3293 135.971 19.5159C136.643 19.6839 137.436 19.7679 138.351 19.7679C139.583 19.7679 140.516 19.6373 141.151 19.3759C141.786 19.1146 142.103 18.7226 142.103 18.1999C142.103 17.8079 141.87 17.5093 141.403 17.3039C140.955 17.0986 140.143 16.9493 138.967 16.8559L136.055 16.6319C134.226 16.4826 132.77 16.1933 131.687 15.7639C130.604 15.3159 129.83 14.7466 129.363 14.0559C128.915 13.3653 128.691 12.5906 128.691 11.7319C128.691 10.5559 129.055 9.58527 129.783 8.81994C130.53 8.03594 131.557 7.44794 132.863 7.05594C134.17 6.64528 135.701 6.43994 137.455 6.43994C139.21 6.43994 140.768 6.67327 142.131 7.13994C143.512 7.60661 144.614 8.25061 145.435 9.07194C146.275 9.89328 146.751 10.8546 146.863 11.9559H141.571C141.497 11.5826 141.291 11.2373 140.955 10.9199C140.638 10.6026 140.171 10.3506 139.555 10.1639C138.958 9.95861 138.174 9.85594 137.203 9.85594C136.102 9.85594 135.262 9.97727 134.683 10.2199C134.104 10.4626 133.815 10.8173 133.815 11.2839C133.815 11.6386 133.993 11.9279 134.347 12.1519C134.702 12.3573 135.374 12.4973 136.363 12.5719L140.143 12.8519C141.935 13.0013 143.335 13.2906 144.343 13.7199C145.37 14.1306 146.098 14.6719 146.527 15.3439C146.956 16.0159 147.171 16.8093 147.171 17.7239Z" fill="white"/>
<path d="M127.169 17.7239C127.169 18.9186 126.815 19.9359 126.105 20.7759C125.415 21.5973 124.397 22.2226 123.053 22.6519C121.709 23.0813 120.076 23.2959 118.153 23.2959C116.193 23.2959 114.476 23.0533 113.001 22.5679C111.527 22.0826 110.379 21.4013 109.557 20.5239C108.736 19.6466 108.297 18.6293 108.241 17.4719H113.533C113.645 17.9386 113.907 18.3493 114.317 18.7039C114.747 19.0586 115.297 19.3293 115.969 19.5159C116.641 19.6839 117.435 19.7679 118.349 19.7679C119.581 19.7679 120.515 19.6373 121.149 19.3759C121.784 19.1146 122.101 18.7226 122.101 18.1999C122.101 17.8079 121.868 17.5093 121.401 17.3039C120.953 17.0986 120.141 16.9493 118.965 16.8559L116.053 16.6319C114.224 16.4826 112.768 16.1933 111.685 15.7639C110.603 15.3159 109.828 14.7466 109.361 14.0559C108.913 13.3653 108.689 12.5906 108.689 11.7319C108.689 10.5559 109.053 9.58527 109.781 8.81994C110.528 8.03594 111.555 7.44794 112.861 7.05594C114.168 6.64528 115.699 6.43994 117.453 6.43994C119.208 6.43994 120.767 6.67327 122.129 7.13994C123.511 7.60661 124.612 8.25061 125.433 9.07194C126.273 9.89328 126.749 10.8546 126.861 11.9559H121.569C121.495 11.5826 121.289 11.2373 120.953 10.9199C120.636 10.6026 120.169 10.3506 119.553 10.1639C118.956 9.95861 118.172 9.85594 117.201 9.85594C116.1 9.85594 115.26 9.97727 114.681 10.2199C114.103 10.4626 113.813 10.8173 113.813 11.2839C113.813 11.6386 113.991 11.9279 114.345 12.1519C114.7 12.3573 115.372 12.4973 116.361 12.5719L120.141 12.8519C121.933 13.0013 123.333 13.2906 124.341 13.7199C125.368 14.1306 126.096 14.6719 126.525 15.3439C126.955 16.0159 127.169 16.8093 127.169 17.7239Z" fill="white"/>
<path d="M98.5377 23.2959C96.6337 23.2959 94.9257 22.9413 93.4137 22.2319C91.9203 21.5226 90.7443 20.5333 89.8857 19.2639C89.027 17.9946 88.5977 16.5106 88.5977 14.8119C88.5977 13.1506 89.0083 11.6946 89.8297 10.4439C90.651 9.19327 91.7803 8.21327 93.2177 7.50394C94.6737 6.79461 96.3163 6.43994 98.1457 6.43994C100.012 6.43994 101.618 6.85061 102.962 7.67194C104.306 8.49327 105.342 9.65061 106.07 11.1439C106.798 12.6373 107.162 14.3919 107.162 16.4079H92.7697V13.1319H104.306L102.43 14.3079C102.374 13.4306 102.159 12.6933 101.786 12.0959C101.431 11.4799 100.955 11.0133 100.358 10.6959C99.7603 10.3599 99.051 10.1919 98.2297 10.1919C97.3336 10.1919 96.559 10.3693 95.9057 10.7239C95.2523 11.0786 94.739 11.5733 94.3657 12.2079C94.011 12.8426 93.8337 13.5799 93.8337 14.4199C93.8337 15.4839 94.067 16.3893 94.5337 17.1359C95.019 17.8826 95.7096 18.4519 96.6057 18.8439C97.5203 19.2359 98.631 19.4319 99.9377 19.4319C101.132 19.4319 102.327 19.2733 103.522 18.9559C104.716 18.6199 105.79 18.1533 106.742 17.5559V20.9439C105.659 21.6906 104.418 22.2693 103.018 22.6799C101.636 23.0906 100.143 23.2959 98.5377 23.2959Z" fill="white"/>
<path d="M74.4746 6.88794H79.7386L80.6906 12.6279V22.8479H75.4826V12.1799L74.4746 6.88794ZM88.3066 6.66394V11.1439C87.8026 11.0319 87.2986 10.9479 86.7946 10.8919C86.3093 10.8359 85.8613 10.8079 85.4506 10.8079C84.5546 10.8079 83.7426 10.9946 83.0146 11.3679C82.3053 11.7226 81.7359 12.2919 81.3066 13.0759C80.8959 13.8599 80.6906 14.8773 80.6906 16.1279L79.6546 14.8399C79.7853 13.7013 79.9999 12.6279 80.2986 11.6199C80.5973 10.6119 81.0079 9.72528 81.5306 8.95994C82.0533 8.17594 82.6973 7.55994 83.4626 7.11194C84.2466 6.66394 85.1893 6.43994 86.2906 6.43994C86.6079 6.43994 86.9439 6.45861 87.2986 6.49594C87.6533 6.53328 87.9893 6.58928 88.3066 6.66394Z" fill="white"/>
<path d="M65.244 1.84814C66.9614 1.84814 68.436 2.14681 69.668 2.74414C70.9187 3.32281 71.8707 4.14415 72.524 5.20815C73.196 6.27215 73.532 7.51348 73.532 8.93215C73.532 10.3508 73.196 11.5921 72.524 12.6561C71.8707 13.7201 70.9187 14.5508 69.668 15.1481C68.436 15.7268 66.9614 16.0161 65.244 16.0161H56.06V11.7321H64.964C65.972 11.7321 66.7654 11.4895 67.344 11.0041C67.9227 10.5001 68.212 9.80948 68.212 8.93215C68.212 8.05481 67.9227 7.37348 67.344 6.88814C66.7654 6.38415 65.972 6.13215 64.964 6.13215H56.536L58.916 3.66814V22.8481H53.624V1.84814H65.244Z" fill="white"/>
<path d="M41.3778 23.2959C39.3619 23.2959 37.5979 22.9413 36.0858 22.2319C34.5738 21.5226 33.3979 20.5333 32.5578 19.2639C31.7178 17.9946 31.2979 16.5293 31.2979 14.8679C31.2979 13.1879 31.7178 11.7226 32.5578 10.4719C33.3979 9.20261 34.5738 8.21327 36.0858 7.50394C37.6165 6.79461 39.3805 6.43994 41.3778 6.43994C43.3938 6.43994 45.1578 6.79461 46.6698 7.50394C48.1819 8.21327 49.3578 9.20261 50.1978 10.4719C51.0565 11.7226 51.4859 13.1879 51.4859 14.8679C51.4859 16.5479 51.0565 18.0226 50.1978 19.2919C49.3578 20.5426 48.1819 21.5226 46.6698 22.2319C45.1578 22.9413 43.3938 23.2959 41.3778 23.2959ZM41.3778 19.3759C42.4045 19.3759 43.2725 19.1986 43.9818 18.8439C44.7099 18.4706 45.2605 17.9479 45.6339 17.2759C46.0258 16.6039 46.2219 15.8013 46.2219 14.8679C46.2219 13.9346 46.0258 13.1319 45.6339 12.4599C45.2605 11.7693 44.7099 11.2466 43.9818 10.8919C43.2725 10.5186 42.4045 10.3319 41.3778 10.3319C40.3885 10.3319 39.5299 10.5186 38.8018 10.8919C38.0738 11.2466 37.5138 11.7693 37.1218 12.4599C36.7299 13.1319 36.5339 13.9346 36.5339 14.8679C36.5339 15.8013 36.7299 16.6039 37.1218 17.2759C37.5138 17.9479 38.0738 18.4706 38.8018 18.8439C39.5299 19.1986 40.3885 19.3759 41.3778 19.3759Z" fill="white"/>
<path d="M24.1104 6.664L26.6864 7.196L29.2904 6.664V22.848H24.1104V6.664ZM26.7144 5.208C25.7998 5.208 25.0531 4.97467 24.4744 4.508C23.8958 4.02267 23.6064 3.388 23.6064 2.604C23.6064 1.80133 23.8958 1.16667 24.4744 0.700001C25.0531 0.233334 25.7998 0 26.7144 0C27.6478 0 28.3944 0.233334 28.9544 0.700001C29.5144 1.16667 29.7944 1.80133 29.7944 2.604C29.7944 3.388 29.5144 4.02267 28.9544 4.508C28.3944 4.97467 27.6478 5.208 26.7144 5.208Z" fill="white"/>
<path d="M14.504 12.5441L14.952 11.5081C16.5947 11.5455 17.9387 11.7975 18.984 12.2641C20.048 12.7308 20.832 13.3748 21.336 14.1961C21.8587 14.9988 22.12 15.9321 22.12 16.9961C22.12 18.1161 21.8587 19.1241 21.336 20.0201C20.8133 20.8975 20.0293 21.5881 18.984 22.0921C17.9573 22.5961 16.6693 22.8481 15.12 22.8481H0L1.624 12.0681L0 1.84814H14.588C16.5293 1.84814 18.032 2.30548 19.096 3.22015C20.1787 4.11614 20.72 5.35748 20.72 6.94415C20.72 7.82148 20.5147 8.66148 20.104 9.46415C19.6933 10.2668 19.04 10.9481 18.144 11.5081C17.248 12.0495 16.0347 12.3948 14.504 12.5441ZM5.208 21.5601L3.192 19.0681H13.86C14.7747 19.0681 15.484 18.8535 15.988 18.4241C16.5107 17.9761 16.772 17.3508 16.772 16.5481C16.772 15.7455 16.4827 15.1108 15.904 14.6441C15.344 14.1588 14.504 13.9161 13.384 13.9161H4.648V10.2201H12.712C13.4773 10.2201 14.112 10.0055 14.616 9.57615C15.12 9.12815 15.372 8.52148 15.372 7.75615C15.372 7.14015 15.1573 6.63615 14.728 6.24414C14.2987 5.83348 13.6733 5.62815 12.852 5.62815H3.22L5.208 3.13614L6.692 12.0681L5.208 21.5601Z" fill="white"/>
</svg>
