<svg width="153" height="24" viewBox="0 0 153 24" fill="none" xmlns="http://www.w3.org/2000/svg">
<path d="M152.777 18.2596C152.777 19.4904 152.411 20.5385 151.678 21.4038C150.965 22.25 149.914 22.8942 148.526 23.3365C147.138 23.7788 145.451 24 143.466 24C141.441 24 139.668 23.75 138.144 23.25C136.621 22.75 135.436 22.0481 134.587 21.1442C133.739 20.2404 133.286 19.1923 133.228 18H138.694C138.81 18.4808 139.08 18.9038 139.504 19.2692C139.947 19.6346 140.516 19.9135 141.21 20.1058C141.904 20.2788 142.723 20.3654 143.668 20.3654C144.94 20.3654 145.904 20.2308 146.56 19.9615C147.215 19.6923 147.543 19.2884 147.543 18.75C147.543 18.3461 147.302 18.0384 146.82 17.8269C146.357 17.6154 145.519 17.4615 144.304 17.3654L141.297 17.1346C139.407 16.9808 137.903 16.6827 136.785 16.2404C135.667 15.7788 134.867 15.1923 134.385 14.4807C133.922 13.7692 133.691 12.9711 133.691 12.0865C133.691 10.875 134.067 9.87496 134.819 9.0865C135.59 8.2788 136.65 7.67304 138 7.26919C139.349 6.84611 140.93 6.63457 142.743 6.63457C144.555 6.63457 146.165 6.87496 147.572 7.35573C148.999 7.8365 150.136 8.49996 150.984 9.34612C151.852 10.1923 152.344 11.1827 152.459 12.3173H146.994C146.916 11.9327 146.704 11.5769 146.357 11.25C146.03 10.923 145.548 10.6634 144.911 10.4711C144.295 10.2596 143.485 10.1538 142.482 10.1538C141.345 10.1538 140.477 10.2788 139.88 10.5288C139.282 10.7788 138.983 11.1442 138.983 11.625C138.983 11.9904 139.166 12.2884 139.533 12.5192C139.899 12.7307 140.593 12.875 141.615 12.9519L145.519 13.2404C147.37 13.3942 148.815 13.6923 149.857 14.1346C150.917 14.5577 151.669 15.1154 152.112 15.8077C152.556 16.5 152.777 17.3173 152.777 18.2596Z" fill="#0A0C00"/>
<path d="M132.119 18.2596C132.119 19.4904 131.753 20.5385 131.02 21.4038C130.307 22.25 129.256 22.8942 127.868 23.3365C126.48 23.7788 124.793 24 122.807 24C120.783 24 119.009 23.75 117.486 23.25C115.963 22.75 114.778 22.0481 113.929 21.1442C113.081 20.2404 112.628 19.1923 112.57 18H118.036C118.151 18.4808 118.421 18.9038 118.845 19.2692C119.289 19.6346 119.858 19.9135 120.552 20.1058C121.246 20.2788 122.065 20.3654 123.01 20.3654C124.282 20.3654 125.246 20.2308 125.902 19.9615C126.557 19.6923 126.885 19.2884 126.885 18.75C126.885 18.3461 126.644 18.0384 126.162 17.8269C125.699 17.6154 124.861 17.4615 123.646 17.3654L120.638 17.1346C118.749 16.9808 117.245 16.6827 116.127 16.2404C115.009 15.7788 114.209 15.1923 113.727 14.4807C113.264 13.7692 113.033 12.9711 113.033 12.0865C113.033 10.875 113.409 9.87496 114.161 9.0865C114.932 8.2788 115.992 7.67304 117.342 7.26919C118.691 6.84611 120.272 6.63457 122.084 6.63457C123.897 6.63457 125.506 6.87496 126.914 7.35573C128.34 7.8365 129.478 8.49996 130.326 9.34612C131.194 10.1923 131.685 11.1827 131.801 12.3173H126.335C126.258 11.9327 126.046 11.5769 125.699 11.25C125.371 10.923 124.889 10.6634 124.253 10.4711C123.636 10.2596 122.827 10.1538 121.824 10.1538C120.687 10.1538 119.819 10.2788 119.221 10.5288C118.624 10.7788 118.325 11.1442 118.325 11.625C118.325 11.9904 118.508 12.2884 118.874 12.5192C119.241 12.7307 119.935 12.875 120.956 12.9519L124.861 13.2404C126.711 13.3942 128.157 13.6923 129.198 14.1346C130.259 14.5577 131.011 15.1154 131.454 15.8077C131.897 16.5 132.119 17.3173 132.119 18.2596Z" fill="#0A0C00"/>
<path d="M102.548 24C100.582 24 98.8176 23.6346 97.256 22.9038C95.7137 22.1731 94.4991 21.1538 93.6122 19.8461C92.7254 18.5384 92.282 17.0096 92.282 15.2596C92.282 13.548 92.7061 12.048 93.5544 10.7596C94.4027 9.47112 95.5691 8.4615 97.0536 7.73073C98.5573 6.99996 100.254 6.63457 102.143 6.63457C104.071 6.63457 105.729 7.05765 107.117 7.9038C108.505 8.74996 109.575 9.94227 110.327 11.4807C111.079 13.0192 111.455 14.8269 111.455 16.9038H96.5909V13.5288H108.505L106.568 14.7404C106.51 13.8365 106.288 13.0769 105.903 12.4615C105.536 11.8269 105.045 11.3461 104.428 11.0192C103.811 10.673 103.078 10.5 102.23 10.5C101.305 10.5 100.505 10.6827 99.8298 11.048C99.155 11.4134 98.6248 11.923 98.2392 12.5769C97.8729 13.2307 97.6898 13.9904 97.6898 14.8557C97.6898 15.9519 97.9308 16.8846 98.4127 17.6538C98.914 18.4231 99.6273 19.0096 100.553 19.4135C101.497 19.8173 102.645 20.0192 103.994 20.0192C105.228 20.0192 106.462 19.8558 107.696 19.5288C108.93 19.1827 110.038 18.7019 111.021 18.0865V21.5769C109.903 22.3461 108.621 22.9423 107.175 23.3654C105.748 23.7885 104.206 24 102.548 24Z" fill="#0A0C00"/>
<path d="M77.6955 7.09611H83.1322L84.1155 13.0096V23.5385H78.7366V12.548L77.6955 7.09611ZM91.9814 6.86534V11.4807C91.4608 11.3654 90.9403 11.2788 90.4198 11.2211C89.9185 11.1634 89.4558 11.1346 89.0317 11.1346C88.1063 11.1346 87.2676 11.3269 86.5157 11.7115C85.7831 12.0769 85.1951 12.6634 84.7517 13.4711C84.3276 14.2788 84.1155 15.3269 84.1155 16.6154L83.0455 15.2884C83.1805 14.1154 83.4022 13.0096 83.7106 11.9711C84.0191 10.9327 84.4432 10.0192 84.983 9.23073C85.5229 8.42304 86.188 7.78842 86.9784 7.32688C87.7882 6.86534 88.7618 6.63457 89.8992 6.63457C90.227 6.63457 90.574 6.6538 90.9403 6.69226C91.3066 6.73073 91.6536 6.78842 91.9814 6.86534Z" fill="#0A0C00"/>
<path d="M68.1621 1.904C69.9358 1.904 71.4588 2.21169 72.7312 2.82708C74.0229 3.42323 75.0062 4.26939 75.6809 5.36555C76.375 6.4617 76.722 7.74055 76.722 9.2021C76.722 10.6636 76.375 11.9425 75.6809 13.0386C75.0062 14.1348 74.0229 14.9906 72.7312 15.606C71.4588 16.2021 69.9358 16.5002 68.1621 16.5002H58.6768V12.0867H67.8729C68.914 12.0867 69.7333 11.8367 70.331 11.3367C70.9286 10.8175 71.2275 10.1059 71.2275 9.2021C71.2275 8.29825 70.9286 7.59632 70.331 7.09632C69.7333 6.57709 68.914 6.31747 67.8729 6.31747H59.1684L61.6265 3.779V23.5387H56.1608V1.904H68.1621Z" fill="#0A0C00"/>
<path d="M43.5128 24C41.4307 24 39.6088 23.6346 38.0472 22.9038C36.4856 22.1731 35.271 21.1538 34.4034 19.8461C33.5359 18.5384 33.1021 17.0288 33.1021 15.3173C33.1021 13.5865 33.5359 12.0769 34.4034 10.7884C35.271 9.48073 36.4856 8.4615 38.0472 7.73073C39.6281 6.99996 41.45 6.63457 43.5128 6.63457C45.595 6.63457 47.4169 6.99996 48.9785 7.73073C50.5401 8.4615 51.7547 9.48073 52.6222 10.7884C53.5091 12.0769 53.9525 13.5865 53.9525 15.3173C53.9525 17.0481 53.5091 18.5673 52.6222 19.875C51.7547 21.1635 50.5401 22.1731 48.9785 22.9038C47.4169 23.6346 45.595 24 43.5128 24ZM43.5128 19.9615C44.5732 19.9615 45.4697 19.7788 46.2023 19.4135C46.9542 19.0288 47.5229 18.4904 47.9085 17.7981C48.3133 17.1058 48.5158 16.2788 48.5158 15.3173C48.5158 14.3557 48.3133 13.5288 47.9085 12.8365C47.5229 12.125 46.9542 11.5865 46.2023 11.2211C45.4697 10.8365 44.5732 10.6442 43.5128 10.6442C42.491 10.6442 41.6042 10.8365 40.8523 11.2211C40.1004 11.5865 39.5221 12.125 39.1172 12.8365C38.7123 13.5288 38.5099 14.3557 38.5099 15.3173C38.5099 16.2788 38.7123 17.1058 39.1172 17.7981C39.5221 18.4904 40.1004 19.0288 40.8523 19.4135C41.6042 19.7788 42.491 19.9615 43.5128 19.9615Z" fill="#0A0C00"/>
<path d="M25.6789 6.8654L28.3394 7.41348L31.0288 6.8654V23.5385H25.6789V6.8654ZM28.3683 5.3654C27.4236 5.3654 26.6525 5.12501 26.0548 4.64424C25.4572 4.14424 25.1583 3.49039 25.1583 2.6827C25.1583 1.85577 25.4572 1.20193 26.0548 0.721157C26.6525 0.240386 27.4236 0 28.3683 0C29.3323 0 30.1034 0.240386 30.6818 0.721157C31.2602 1.20193 31.5494 1.85577 31.5494 2.6827C31.5494 3.49039 31.2602 4.14424 30.6818 4.64424C30.1034 5.12501 29.3323 5.3654 28.3683 5.3654Z" fill="#0A0C00"/>
<path d="M15.7572 12.9233L16.2199 11.8559C17.9165 11.8944 19.3046 12.154 20.3842 12.6348C21.4831 13.1156 22.2929 13.779 22.8134 14.6252C23.3532 15.4521 23.6231 16.4137 23.6231 17.5098C23.6231 18.6637 23.3532 19.7021 22.8134 20.6252C22.2736 21.529 21.4639 22.2406 20.3842 22.7598C19.3239 23.2791 17.9936 23.5387 16.3934 23.5387H0.777344L2.45463 12.4329L0.777344 1.904H15.844C17.849 1.904 19.401 2.37515 20.4999 3.31747C21.6181 4.24054 22.1772 5.51939 22.1772 7.15401C22.1772 8.05786 21.9651 8.92325 21.541 9.75017C21.1168 10.5771 20.4421 11.279 19.5167 11.8559C18.5913 12.4136 17.3381 12.7694 15.7572 12.9233ZM6.15622 22.2117L4.07408 19.6444H15.0921C16.0368 19.6444 16.7694 19.4233 17.2899 18.981C17.8297 18.5194 18.0996 17.8752 18.0996 17.0483C18.0996 16.2213 17.8008 15.5675 17.2032 15.0867C16.6248 14.5867 15.7572 14.3367 14.6005 14.3367H5.57785V10.529H13.9064C14.6969 10.529 15.3524 10.3079 15.8729 9.86556C16.3934 9.40402 16.6537 8.77902 16.6537 7.99055C16.6537 7.35594 16.432 6.8367 15.9886 6.43286C15.5452 6.00978 14.8993 5.79824 14.051 5.79824H4.103L6.15622 3.23093L7.68891 12.4329L6.15622 22.2117Z" fill="#0A0C00"/>
</svg>
